<svg xmlns="http://www.w3.org/2000/svg" width="150" height="37.5" zoomAndPan="magnify" viewBox="0 0 150 37.5" fille="none">
  <defs>
    <g/>
  </defs>
  <g fill="##333333">
    <g transform="translate(3.958933, 27.285794)">
      <g>
        <path d="M 6.078125 0 C 5.265625 0 4.535156 -0.195312 3.890625 -0.59375 C 3.242188 -1 2.71875 -1.523438 2.3125 -2.171875 C 1.90625 -2.828125 1.703125 -3.554688 1.703125 -4.359375 L 1.703125 -15.09375 C 1.703125 -15.894531 1.90625 -16.617188 2.3125 -17.265625 C 2.71875 -17.921875 3.242188 -18.445312 3.890625 -18.84375 C 4.535156 -19.25 5.265625 -19.453125 6.078125 -19.453125 L 21.4375 -19.453125 L 21.4375 -15.828125 L 6.171875 -15.828125 C 5.953125 -15.828125 5.753906 -15.742188 5.578125 -15.578125 C 5.410156 -15.410156 5.328125 -15.21875 5.328125 -15 L 5.328125 -4.46875 C 5.328125 -4.238281 5.410156 -4.039062 5.578125 -3.875 C 5.753906 -3.707031 5.953125 -3.625 6.171875 -3.625 L 21.5 -3.625 L 21.5 0 Z M 6.078125 0 "/>
      </g>
    </g>
  </g>
  <g fill="##333333">
    <g transform="translate(27.267249, 27.285794)">
      <g>
        <path d="M 4.828125 7.453125 L 4.828125 3.796875 L 16.734375 3.796875 C 16.960938 3.796875 17.160156 3.707031 17.328125 3.53125 C 17.492188 3.363281 17.578125 3.171875 17.578125 2.953125 L 17.578125 0 L 5.765625 0 C 4.984375 0 4.253906 -0.191406 3.578125 -0.578125 C 2.910156 -0.972656 2.378906 -1.503906 1.984375 -2.171875 C 1.597656 -2.847656 1.40625 -3.578125 1.40625 -4.359375 L 1.40625 -19.390625 L 5.03125 -19.390625 L 5.03125 -4.46875 C 5.03125 -4.238281 5.113281 -4.039062 5.28125 -3.875 C 5.445312 -3.707031 5.644531 -3.625 5.875 -3.625 L 16.734375 -3.625 C 16.960938 -3.625 17.160156 -3.707031 17.328125 -3.875 C 17.492188 -4.039062 17.578125 -4.238281 17.578125 -4.46875 L 17.578125 -19.390625 L 21.203125 -19.390625 L 21.203125 3.09375 C 21.203125 3.894531 21.003906 4.625 20.609375 5.28125 C 20.222656 5.9375 19.695312 6.460938 19.03125 6.859375 C 18.375 7.253906 17.644531 7.453125 16.84375 7.453125 Z M 4.828125 7.453125 "/>
      </g>
    </g>
  </g>
  <g fill="##333333">
    <g transform="translate(50.240193, 27.285794)">
      <g>
        <path d="M 5.125 0 C 4.320312 0 3.59375 -0.191406 2.9375 -0.578125 C 2.28125 -0.972656 1.753906 -1.503906 1.359375 -2.171875 C 0.960938 -2.847656 0.765625 -3.578125 0.765625 -4.359375 L 0.765625 -15.09375 C 0.765625 -15.894531 0.960938 -16.617188 1.359375 -17.265625 C 1.753906 -17.921875 2.28125 -18.445312 2.9375 -18.84375 C 3.59375 -19.25 4.320312 -19.453125 5.125 -19.453125 L 16.9375 -19.453125 L 16.9375 -25.828125 L 20.5625 -25.828125 L 20.5625 0 Z M 5.265625 -3.625 L 16.140625 -3.625 C 16.359375 -3.625 16.546875 -3.707031 16.703125 -3.875 C 16.859375 -4.039062 16.9375 -4.238281 16.9375 -4.46875 L 16.9375 -15 C 16.9375 -15.21875 16.859375 -15.410156 16.703125 -15.578125 C 16.546875 -15.742188 16.359375 -15.828125 16.140625 -15.828125 L 5.265625 -15.828125 C 5.046875 -15.828125 4.847656 -15.742188 4.671875 -15.578125 C 4.503906 -15.410156 4.421875 -15.21875 4.421875 -15 L 4.421875 -4.46875 C 4.421875 -4.238281 4.503906 -4.039062 4.671875 -3.875 C 4.847656 -3.707031 5.046875 -3.625 5.265625 -3.625 Z M 5.265625 -3.625 "/>
      </g>
    </g>
  </g>
  <g fill="##333333">
    <g transform="translate(72.609465, 27.285794)">
      <g>
        <path d="M 6.109375 0 C 5.296875 0 4.5625 -0.195312 3.90625 -0.59375 C 3.25 -1 2.722656 -1.523438 2.328125 -2.171875 C 1.941406 -2.828125 1.75 -3.554688 1.75 -4.359375 L 1.75 -11.546875 L 17.875 -11.546875 L 17.875 -15 C 17.875 -15.21875 17.796875 -15.410156 17.640625 -15.578125 C 17.484375 -15.742188 17.296875 -15.828125 17.078125 -15.828125 L 1.75 -15.828125 L 1.75 -19.453125 L 17.171875 -19.453125 C 17.984375 -19.453125 18.71875 -19.253906 19.375 -18.859375 C 20.03125 -18.472656 20.550781 -17.941406 20.9375 -17.265625 C 21.332031 -16.597656 21.53125 -15.875 21.53125 -15.09375 L 21.53125 0 Z M 6.203125 -3.625 L 17.875 -3.625 L 17.875 -8.15625 L 5.375 -8.15625 L 5.375 -4.46875 C 5.375 -4.238281 5.457031 -4.039062 5.625 -3.875 C 5.789062 -3.707031 5.984375 -3.625 6.203125 -3.625 Z M 6.203125 -3.625 "/>
      </g>
    </g>
  </g>
  <g fill="##333333">
    <g transform="translate(95.884239, 27.285794)">
      <g>
        <path d="M 1.75 0 L 1.75 -15.09375 C 1.75 -15.894531 1.945312 -16.617188 2.34375 -17.265625 C 2.75 -17.921875 3.28125 -18.445312 3.9375 -18.84375 C 4.601562 -19.25 5.328125 -19.453125 6.109375 -19.453125 L 16.96875 -19.453125 L 16.96875 -15.828125 L 6.203125 -15.828125 C 5.984375 -15.828125 5.789062 -15.742188 5.625 -15.578125 C 5.457031 -15.410156 5.375 -15.21875 5.375 -15 L 5.375 0 Z M 1.75 0 "/>
      </g>
    </g>
  </g>
  <g fill="##333333">
    <g transform="translate(113.222941, 27.285794)">
      <g>
        <path d="M 1.8125 0 L 1.8125 -19.453125 L 26.671875 -19.453125 C 27.492188 -19.453125 28.226562 -19.25 28.875 -18.84375 C 29.53125 -18.445312 30.050781 -17.921875 30.4375 -17.265625 C 30.832031 -16.617188 31.03125 -15.894531 31.03125 -15.09375 L 31.03125 0 L 27.4375 0 L 27.4375 -15 C 27.4375 -15.21875 27.351562 -15.410156 27.1875 -15.578125 C 27.019531 -15.742188 26.828125 -15.828125 26.609375 -15.828125 L 19.125 -15.828125 C 18.875 -15.828125 18.671875 -15.742188 18.515625 -15.578125 C 18.359375 -15.410156 18.28125 -15.21875 18.28125 -15 L 18.28125 0 L 14.625 0 L 14.625 -15 C 14.625 -15.21875 14.539062 -15.410156 14.375 -15.578125 C 14.207031 -15.742188 14.007812 -15.828125 13.78125 -15.828125 L 6.265625 -15.828125 C 6.046875 -15.828125 5.859375 -15.742188 5.703125 -15.578125 C 5.546875 -15.410156 5.46875 -15.21875 5.46875 -15 L 5.46875 0 Z M 1.8125 0 "/>
      </g>
    </g>
  </g>
</svg>
